<svg xmlns="http://www.w3.org/2000/svg" xmlns:xlink="http://www.w3.org/1999/xlink" version="1.1" width="256" height="256" viewBox="0 0 256 256" xml:space="preserve">

<defs>
</defs>
<g style="stroke: none; stroke-width: 0; stroke-dasharray: none; stroke-linecap: butt; stroke-linejoin: miter; stroke-miterlimit: 10; fill: none; fill-rule: nonzero; opacity: 1;" transform="translate(45.02412451361867 45.024124513618645) scale(1.83 1.83)" >
	<path d="M 84.851 76.487 H 5.149 C 2.31 76.487 0 74.177 0 71.338 V 18.662 c 0 -2.839 2.31 -5.148 5.149 -5.148 h 79.702 c 2.84 0 5.149 2.31 5.149 5.148 v 52.676 C 90 74.177 87.691 76.487 84.851 76.487 z M 5.149 16.48 c -1.203 0 -2.182 0.978 -2.182 2.181 v 52.676 c 0 1.203 0.979 2.182 2.182 2.182 h 79.702 c 1.203 0 2.182 -0.978 2.182 -2.182 V 18.662 c 0 -1.203 -0.978 -2.181 -2.182 -2.181 H 5.149 z M 18.133 41.951 c -4.897 0 -8.882 -3.985 -8.882 -8.882 s 3.985 -8.882 8.882 -8.882 s 8.882 3.985 8.882 8.882 S 23.031 41.951 18.133 41.951 z M 18.133 27.154 c -3.262 0 -5.915 2.653 -5.915 5.915 s 2.653 5.915 5.915 5.915 s 5.915 -2.653 5.915 -5.915 S 21.395 27.154 18.133 27.154 z" style="stroke: none; stroke-width: 1; stroke-dasharray: none; stroke-linecap: butt; stroke-linejoin: miter; stroke-miterlimit: 10; fill: rgb(14,165,233); fill-rule: nonzero; opacity: 1;" transform=" matrix(1 0 0 1 0 0) " stroke-linecap="round" />
	<path d="M 10.611 66.623 c -0.401 0 -0.801 -0.159 -1.096 -0.476 c -0.566 -0.604 -0.535 -1.554 0.07 -2.12 l 14.436 -13.503 l 8.164 7.239 L 54.077 36.87 l 26.339 27.21 c 0.576 0.595 0.561 1.545 -0.035 2.121 c -0.595 0.574 -1.543 0.562 -2.121 -0.035 L 53.993 41.097 L 32.26 61.84 l -8.185 -7.259 L 11.636 66.219 C 11.346 66.489 10.979 66.623 10.611 66.623 z" style="stroke: none; stroke-width: 1; stroke-dasharray: none; stroke-linecap: butt; stroke-linejoin: miter; stroke-miterlimit: 10; fill: rgb(14,165,233); fill-rule: nonzero; opacity: 1;" transform=" matrix(1 0 0 1 0 0) " stroke-linecap="round" />
</g>
</svg>