<svg xmlns="http://www.w3.org/2000/svg" xmlns:xlink="http://www.w3.org/1999/xlink" version="1.1" width="256" height="256" viewBox="0 0 256 256" xml:space="preserve">

<defs>
</defs>
<g style="stroke: none; stroke-width: 0; stroke-dasharray: none; stroke-linecap: butt; stroke-linejoin: miter; stroke-miterlimit: 10; fill: none; fill-rule: nonzero; opacity: 1;" transform="translate(1.4065934065934016 1.4065934065934016) scale(2.81 2.81)" >
	<path d="M 23.681 48.752 h -5.944 c -0.829 0 -1.5 0.672 -1.5 1.5 v 9.854 v 6.747 c 0 0.828 0.671 1.5 1.5 1.5 s 1.5 -0.672 1.5 -1.5 v -5.247 h 4.444 c 2.392 0 4.338 -1.946 4.338 -4.339 v -4.177 C 28.019 50.698 26.073 48.752 23.681 48.752 z M 25.019 57.268 c 0 0.738 -0.601 1.339 -1.338 1.339 h -4.444 v -6.854 h 4.444 c 0.738 0 1.338 0.601 1.338 1.339 V 57.268 z" style="stroke: none; stroke-width: 1; stroke-dasharray: none; stroke-linecap: butt; stroke-linejoin: miter; stroke-miterlimit: 10; fill: rgb(171,178,184); fill-rule: nonzero; opacity: 1;" transform=" matrix(1 0 0 1 0 0) " stroke-linecap="round" />
	<path d="M 38.674 68.354 h -5.652 c -0.829 0 -1.5 -0.672 -1.5 -1.5 V 50.252 c 0 -0.828 0.671 -1.5 1.5 -1.5 h 5.652 c 2.553 0 4.63 2.077 4.63 4.631 v 10.341 C 43.305 66.276 41.228 68.354 38.674 68.354 z M 34.522 65.354 h 4.152 c 0.899 0 1.63 -0.731 1.63 -1.63 V 53.383 c 0 -0.899 -0.731 -1.631 -1.63 -1.631 h -4.152 V 65.354 z" style="stroke: none; stroke-width: 1; stroke-dasharray: none; stroke-linecap: butt; stroke-linejoin: miter; stroke-miterlimit: 10; fill: rgb(171,178,184); fill-rule: nonzero; opacity: 1;" transform=" matrix(1 0 0 1 0 0) " stroke-linecap="round" />
	<path d="M 57.393 51.752 H 48.61 c -0.828 0 -1.5 -0.672 -1.5 -1.5 s 0.672 -1.5 1.5 -1.5 h 8.782 c 0.828 0 1.5 0.672 1.5 1.5 S 58.221 51.752 57.393 51.752 z" style="stroke: none; stroke-width: 1; stroke-dasharray: none; stroke-linecap: butt; stroke-linejoin: miter; stroke-miterlimit: 10; fill: rgb(171,178,184); fill-rule: nonzero; opacity: 1;" transform=" matrix(1 0 0 1 0 0) " stroke-linecap="round" />
	<path d="M 54.362 57.053 H 50.11 v -6.801 c 0 -0.828 -0.672 -1.5 -1.5 -1.5 s -1.5 0.672 -1.5 1.5 v 16.602 c 0 0.828 0.672 1.5 1.5 1.5 s 1.5 -0.672 1.5 -1.5 v -6.801 h 4.252 c 0.828 0 1.5 -0.672 1.5 -1.5 S 55.19 57.053 54.362 57.053 z" style="stroke: none; stroke-width: 1; stroke-dasharray: none; stroke-linecap: butt; stroke-linejoin: miter; stroke-miterlimit: 10; fill: rgb(171,178,184); fill-rule: nonzero; opacity: 1;" transform=" matrix(1 0 0 1 0 0) " stroke-linecap="round" />
	<path d="M 82.039 17.28 L 66.091 1.332 C 65.232 0.473 64.09 0 62.875 0 H 20.307 c -2.508 0 -4.548 2.04 -4.548 4.548 V 41.66 h -4.853 c -2.358 0 -4.277 1.874 -4.277 4.177 v 25.431 c 0 2.304 1.919 4.178 4.277 4.178 h 4.853 v 10.006 c 0 2.508 2.04 4.548 4.548 4.548 h 58.517 c 2.508 0 4.548 -2.04 4.548 -4.548 V 20.496 C 83.371 19.281 82.898 18.14 82.039 17.28 z M 65.638 5.121 L 78.25 17.733 H 66.915 c -0.704 0 -1.277 -0.573 -1.277 -1.277 V 5.121 z M 10.906 72.446 c -0.704 0 -1.277 -0.528 -1.277 -1.178 V 45.837 c 0 -0.649 0.573 -1.177 1.277 -1.177 h 53.317 c 0.704 0 1.277 0.528 1.277 1.177 v 25.431 c 0 0.649 -0.573 1.178 -1.277 1.178 H 10.906 z M 78.823 87 H 20.307 c -0.854 0 -1.548 -0.694 -1.548 -1.548 V 75.446 h 45.465 c 2.358 0 4.277 -1.874 4.277 -4.178 V 45.837 c 0 -2.303 -1.919 -4.177 -4.277 -4.177 H 18.759 V 4.548 C 18.759 3.694 19.453 3 20.307 3 h 42.331 v 13.456 c 0 2.358 1.919 4.277 4.277 4.277 h 13.456 v 64.719 C 80.371 86.306 79.677 87 78.823 87 z" style="stroke: none; stroke-width: 1; stroke-dasharray: none; stroke-linecap: butt; stroke-linejoin: miter; stroke-miterlimit: 10; fill: rgb(14,165,233); fill-rule: nonzero; opacity: 1;" transform=" matrix(1 0 0 1 0 0) " stroke-linecap="round" />
</g>
</svg>